<?xml version="1.0" encoding="UTF-8" standalone="no"?>
<svg
   version="1.0"
   width="1024.000000pt"
   height="1024.000000pt"
   viewBox="0 0 1024.000000 1024.000000"
   preserveAspectRatio="xMidYMid meet"
   id="svg5"
   sodipodi:docname="linedrawing.svg"
   inkscape:version="1.4 (e7c3feb100, 2024-10-09)"
   xmlns:inkscape="http://www.inkscape.org/namespaces/inkscape"
   xmlns:sodipodi="http://sodipodi.sourceforge.net/DTD/sodipodi-0.dtd"
   xmlns="http://www.w3.org/2000/svg"
   xmlns:svg="http://www.w3.org/2000/svg">
  <defs
     id="defs5" />
  <sodipodi:namedview
     id="namedview5"
     pagecolor="#ffffff"
     bordercolor="#000000"
     borderopacity="0.25"
     inkscape:showpageshadow="2"
     inkscape:pageopacity="0.0"
     inkscape:pagecheckerboard="0"
     inkscape:deskcolor="#d1d1d1"
     inkscape:document-units="pt"
     inkscape:zoom="0.70710678"
     inkscape:cx="591.84838"
     inkscape:cy="691.55043"
     inkscape:window-width="1920"
     inkscape:window-height="1043"
     inkscape:window-x="0"
     inkscape:window-y="0"
     inkscape:window-maximized="1"
     inkscape:current-layer="svg5" />
  <metadata
     id="metadata1">
Created by potrace 1.16, written by Peter Selinger 2001-2019
</metadata>
  <path
     d="m 5259.5506,8989.934 c -422,-36 -714,-113 -914,-242 -187,-121 -340,-298.0003 -447,-516.0003 -27,-55 -51,-101 -53,-103 -2,-2 -2,18 1,44 20,233 64,374.0003 159,518.0003 65,97 25,107 -146,36 -467,-192 -913,-507.0003 -1133,-800.0003 -146,-195 -187,-379 -131,-594 8,-33 13,-61 11,-63 -6,-6 -74,143 -101,222 -25,74 -42,164 -54,279 -10,99 -28,99 -117,3 -283,-304 -528,-711 -724,-1203 -145,-365 -181,-491 -188,-665 -7,-150 6,-210 72,-348 41,-85 241,-392 265,-407 6,-3 10,-11 10,-16 0,-5 -24,8 -53,29 -28,21 -99,70 -157,110 -58,39 -142,105 -188,146 -45,42 -86,76 -91,76 -5,0 -14,-7 -21,-15 -14,-16 7,-85 95,-320 102,-270 201,-478 296,-620 l 60,-90 -70,73 c -38,40 -95,111 -126,158 -72,107 -169,310 -196,411 -23,84 -39,109 -63,100 -39,-15 -6,-372 55,-595 64,-232 182,-403 421,-608 150,-128 152,-131 93,-101 -127,63 -304,100 -450,95 -85,-3 -90,-4 -93,-25 -2,-13 1,-23 6,-23 23,0 112,-84 250,-238 203,-226 268,-281 457,-387 66,-37 108,-64 94,-61 -144,32 -340,9 -468,-55 -86,-43 -131,-83 -114,-100 7,-7 59,-12 135,-13 102,-1 136,-5 198,-26 110,-36 297,-133 443,-230 l 128,-85 -113,-5 c -100,-5 -121,-9 -180,-37 -72,-34 -145,-95 -179,-150 -19,-30 -20,-36 -7,-49 12,-13 21,-12 64,8 42,20 65,23 159,23 102,0 117,-3 194,-34 105,-42 228,-125 398,-268 324,-272 538,-415 834,-557 346,-166 692,-268 1114,-328 137,-19 203,-22 460,-23 480.0002,0 779.0002,46 1197.0002,185 754,251 1449,808 1922,1539 298,461 512,987 556,1371 13,104 7,130 -26,130 -16,0 -26,-18 -115,-214 -280,-612 -710,-1223 -1134,-1609 -507,-462 -1077,-756 -1710,-881 -137,-27 -305,-54 -305,-50 0,2 21,13 48,24 56,25 171,99 174,111 0,5 1,14 2,20 1,8 -68,12 -244,13 -233.0002,2 -252.0002,4 -395.0002,34 -184,38 -415,116 -640,215 -177,78 -510,205 -605,231 -30,8 -117,27 -193,42 -75,16 -134,31 -130,35 15,13 138,48 178,51 32,2 41,7 43,24 3,18 -8,27 -55,50 -52,26 -68,29 -156,29 h -99 l 42,37 c 89,79 194,111 345,106 95,-3 100,-2 103,18 2,16 -12,32 -65,67 -87,59 -173,94 -265,107 -100,15 -214,-3 -300,-47 -27,-13 -48,-19 -48,-14 0,21 146,163 207,201 107,68 160,83 293,85 101,1 115,3 118,18 10,49 -157,184 -274,223 -87,28 -283,26 -379,-4 -38,-11 -71,-19 -74,-16 -9,8 63,74 134,123 38,26 115,72 169,101 161,86 208,141 221,256 13,109 -24,314 -61,345 -10,8 -50,12 -117,12 -100,-1 -228,-25 -344,-67 -24,-8 -43,-13 -43,-11 0,10 129,80 216,116 263,109 335,172 396,349 25,72 138,501 138,524 0,29 -28,29 -102,-2 -107,-44 -211,-63 -355,-63 -117,0 -238,15 -256,31 -4,4 59,10 140,14 287,14 451,45 545,105 74,47 130,112 261,301 205,298 290,409 408,532 57,58 50,77 -29,79 -29,1 -23,4 30,14 81,16 48,-2 308,170 235,157 349,223 483,280 73.0002,32 87.0002,41 87.0002,60 0,18 -14,32 -57.0002,58 -80,48 -245,121 -388,172 -204,73 -373,143 -533,221 -85,42 -152,77 -150,80 3,2 78,-21 169,-51 90,-31 218,-71 284,-91 66,-19 217,-66 335,-104 496.0002,-159 617.0002,-182 843.0002,-161 72,6 186,21 252,32 66,11 174,24 240,27 103,6 120,9 123,24 8,41 -226,301 -398,441 l -35,29 50,-28 c 74,-40 168,-104 284,-194 221,-171 348,-217 686,-246 342,-29 378,-36 501,-98 144,-70 229,-123 333,-204 251,-195 408,-424 467,-678 27,-112 24,-320 -4,-426 -30,-109 -85,-217 -148,-286 -30,-33 -54,-67 -54,-76 0,-26 44,-29 128,-8 174,44 327,154 433,309 147,217 180,451 114,813 -8,41 -21,122 -30,180 -100,629 -455,1207 -1065,1731 -218,187 -527,375.0003 -731,443.0003 -213,71 -535,77 -892,15 -65,-12 -121,-19 -123,-16 -3,3 43,24 103,47 105,41 209,67 361,91 77,12 101,31 68,54 -47,35 -392,113 -646,146 -148,19 -542,33 -660.0002,23 z"
     id="path1"
     style="display:inline;fill:#000000;fill-opacity:1"
     transform="matrix(0.1,0,0,-0.1,0,1024)"
     inkscape:label="Halo" />
  <g
     transform="matrix(0.1,0,0,-0.1,-9.5459415,1026.1213)"
     fill="#000000"
     stroke="none"
     id="g5">
    <path
       d="m 3347,6479 c 171,-76 353,-148 458,-182 189,-62 561,-137 678,-137 31,0 57,-2 57,-4 0,-3 -16,-22 -36,-43 -80,-85 -246,-307 -399,-533 -88,-130 -162,-212 -218,-241 -89,-47 -299,-79 -607,-95 -153,-8 -180,-14 -180,-44 0,-16 14,-27 54,-46 167,-76 471,-83 673,-15 l 55,18 -7,-36 c -14,-84 -128,-460 -153,-504 -14,-27 -46,-66 -69,-87 -45,-40 -57,-46 -303,-163 -206,-98 -316,-186 -279,-222 12,-13 36,-8 174,31 249,70 397,91 428,59 34,-34 51,-293 23,-358 -18,-44 -58,-76 -173,-138 -54,-29 -118,-66 -143,-83 -143,-96 -276,-262 -232,-290 5,-3 42,8 83,25 157,64 339,78 460,35 66,-23 139,-67 171,-102 16,-18 14,-19 -48,-21 -205,-6 -432,-164 -520,-361 -43,-95 -26,-111 62,-58 32,20 88,46 124,58 117,40 288,25 382,-32 l 27,-16 -82,-12 c -93,-13 -179,-51 -245,-108 -70,-59 -112,-140 -83,-158 5,-4 39,1 75,9 44,10 84,13 118,9 l 52,-7 -42,-12 c -91,-27 -162,-88 -162,-139 0,-23 19,-29 43,-13 13,8 30,11 42,7 11,-4 58,-13 105,-20 167,-24 487,-130 748,-246 476,-213 781,-294 1105,-294 69,0 117,-4 111,-9 -15,-14 -168,-70 -236,-86 -204,-49 -598,-17 -928,76 -390,110 -686,277 -1004,564 -232,210 -419,471 -581,808 -90,189 -131,297 -189,507 -89,322 -121,596 -113,960 6,269 22,419 69,635 63,294 143,522 279,795 96,193 209,380 228,380 6,0 72,-27 148,-61 z"
       id="path15"
       style="display:inline;fill:#731c37;fill-opacity:1"
       inkscape:label="fillfeathermedium" />
    <path
       d="m 4086,7369 c 362,-232 520,-310 921,-455 138,-50 276,-109 340,-146 l 43,-24 -113,-56 c -138,-69 -288,-160 -427,-259 -218,-156 -269,-175 -430,-163 -197,14 -518,84 -770,168 -117,38 -408,151 -419,161 -5,6 129,182 211,275 105,119 332,333 468,439 63,50 118,90 121,91 4,0 29,-14 55,-31 z"
       id="path14"
       style="display:inline;fill:#f5af00;fill-opacity:1"
       inkscape:label="fillfeathersmall" />
    <path
       d="m 5862,8935 c 168,-17 390,-53 537,-87 l 94,-21 -99,-23 c -115,-26 -195,-55 -313,-113 -93,-46 -209,-125 -218,-148 -13,-34 15,-35 111,-4 193,62 490,104 746,105 164,0 232,-9 365,-51 508,-160 1186,-768 1510,-1353 148,-269 268,-652 290,-930 4,-47 13,-120 21,-164 34,-187 8,-388 -72,-553 -43,-91 -164,-223 -258,-281 -94,-59 -100,-56 -31,15 55,57 126,164 125,189 -1,5 -8,-4 -17,-21 -43,-80 -213,-265 -244,-265 -5,0 3,19 19,43 174,253 189,635 37,937 -117,234 -357,476 -612,618 -43,24 -67,41 -53,39 152,-31 179,-40 215,-72 20,-19 76,-60 123,-91 48,-32 111,-77 140,-101 30,-23 57,-43 62,-43 7,0 135,-207 175,-283 11,-21 21,-34 23,-28 2,6 -10,34 -27,61 -17,28 -31,54 -31,59 0,4 -25,47 -56,95 -31,48 -55,89 -52,91 10,11 154,-106 153,-124 0,-3 5,-5 11,-3 16,3 84,-76 104,-123 25,-60 58,-199 71,-305 11,-89 7,-255 -7,-307 -4,-13 -2,-23 4,-23 16,0 40,117 47,230 7,93 0,174 -21,290 -4,22 -3,22 10,-5 8,-16 15,-25 15,-20 1,6 6,3 11,-5 6,-9 10,-11 10,-3 0,7 7,10 15,7 9,-4 15,0 16,7 1,8 5,3 9,-11 4,-14 8,-74 9,-134 1,-60 4,-107 7,-104 3,3 12,50 20,104 34,223 -9,369 -150,510 -146,147 -363,256 -685,344 -180,49 -238,58 -751,115 -258,29 -363,47 -445,75 -90,31 -198,93 -309,178 -243,186 -401,265 -636,322 -100,23 -110,24 -110,7 0,-7 42,-30 93,-52 204,-87 442,-280 602,-490 19,-25 35,-47 35,-50 0,-3 -13,-5 -30,-5 -16,0 -125,-13 -242,-30 -452,-62 -483,-59 -1025,110 -142,44 -316,99 -388,121 -71,22 -204,64 -295,93 -91,30 -205,66 -255,81 -49,15 -104,33 -121,41 -17,7 -41,17 -54,22 -20,7 -12,15 72,69 177,116 507,290 613,323 22,7 56,21 77,31 20,10 103,41 185,68 404,136 768,195 1193,195 407,-1 804,-71 1175,-209 169,-63 465,-212 623,-313 12,-8 22,-12 22,-9 0,8 -252,167 -385,242 -190,108 -555,271 -745,333 -138,45 -237,68 -411,97 -214,34 -345,45 -555,45 -722,0 -1380,-203 -2025,-626 -317,-208 -617,-488 -865,-809 -50,-65 -186,-272 -249,-380 -221,-377 -370,-829 -447,-1355 -19,-133 -22,-197 -23,-450 0,-185 5,-334 13,-400 79,-635 271,-1156 598,-1627 310,-445 768,-818 1231,-1002 268,-106 521,-164 773,-175 114,-5 110,-3 -55,20 -139,20 -398,85 -540,136 -142,51 -401,179 -537,265 -751,476 -1256,1300 -1392,2268 -114,808 52,1655 457,2335 160,268 315,468 532,685 179,180 310,286 545,443 514,344 1077,548 1665,604 389,37 909,-4 1229,-97 85,-25 155,-54 96,-41 -64,15 -316,55 -420,67 -144,16 -507,17 -660,1 C 5183,8078 4470,7805 3950,7412 3128,6791 2665,5962 2569,4940 c -20,-209 -3,-637 32,-840 134,-768 508,-1427 1040,-1835 281,-215 565,-354 911,-444 552,-144 1199,-112 1808,89 209,69 333,120 498,206 520,272 960,651 1339,1155 216,288 447,666 581,954 57,121 61,120 32,-5 -65,-290 -273,-762 -471,-1070 -201,-312 -324,-466 -553,-696 -323,-322 -604,-528 -971,-709 -407,-201 -806,-306 -1317,-346 -207,-17 -588,1 -813,36 -613,97 -1181,342 -1636,705 -199,159 -342,284 -331,288 23,7 140,-29 222,-70 46,-24 121,-67 165,-97 91,-62 74,-34 -25,39 -136,100 -293,170 -385,170 -46,0 -69,8 -157,54 -129,68 -205,88 -314,84 -96,-4 -96,4 -1,48 55,26 75,29 177,32 88,2 132,-1 188,-16 55,-14 75,-16 82,-7 12,14 7,19 -112,108 -217,163 -453,297 -617,352 -29,9 -87,23 -129,29 l -77,12 57,17 c 186,55 356,48 561,-25 48,-17 90,-28 94,-24 18,18 -132,126 -310,224 -70,39 -156,91 -192,116 -66,48 -220,201 -343,343 -39,44 -84,91 -99,103 l -28,23 78,-7 c 188,-15 391,-90 617,-229 l 35,-22 -40,50 c -63,77 -209,221 -343,339 -67,59 -150,140 -183,179 -75,90 -159,258 -193,387 -26,97 -56,255 -56,294 0,11 29,-37 65,-109 35,-71 88,-161 117,-200 73,-99 202,-222 308,-295 125,-85 136,-71 43,52 -94,125 -162,228 -216,325 -52,95 -142,285 -168,357 -14,42 -79,212 -114,301 -7,17 -3,16 21,-7 16,-14 90,-68 164,-119 160,-109 237,-167 304,-226 48,-43 76,-54 76,-30 0,33 -87,186 -189,332 -186,266 -259,442 -246,595 3,41 13,104 21,140 17,76 87,302 111,357 l 16,38 14,-40 c 26,-76 132,-280 191,-370 108,-163 323,-385 374,-385 39,0 14,37 -90,139 -169,164 -308,370 -396,583 -26,62 -51,121 -57,131 -7,13 2,45 36,130 70,172 228,489 236,475 4,-7 19,-49 34,-93 55,-166 160,-351 280,-495 116,-138 165,-175 165,-122 0,9 -37,60 -81,112 -166,195 -271,387 -333,605 l -24,85 87,133 c 98,147 219,307 289,380 l 47,47 13,-90 c 16,-111 59,-246 117,-365 93,-190 215,-341 215,-266 0,10 -18,77 -40,148 -88,282 -91,403 -15,570 87,190 389,479 717,682 131,82 347,195 452,236 l 82,32 -37,-71 c -75,-143 -111,-305 -112,-506 -2,-220 22,-258 74,-115 43,119 142,310 201,390 112,151 298,311 435,372 171,76 457,142 718,166 112,10 430,5 567,-8 z"
       id="path13"
       style="display:inline;fill:#005244;fill-opacity:1"
       inkscape:label="fillfeather" />
    <path
       d="m 6496,7611 c -6,-9 186,-172 312,-264 133,-98 287,-167 511,-232 121,-35 380,-89 388,-81 6,6 -17,12 -117,31 -47,9 -134,30 -195,47 -275,76 -405,143 -670,343 -233,175 -222,168 -229,156 z"
       id="path3"
       style="fill:#000000;fill-opacity:1"
       inkscape:label="tipfoldtwo" />
    <path
       d="m 7775,7294 c 73,-72 299,-225 450,-304 219,-115 360,-214 456,-318 55,-60 58,-62 28,-19 -75,108 -208,206 -484,357 -156,86 -292,170 -360,225 -40,33 -108,77 -90,59 z"
       id="path4"
       style="fill:#000000;fill-opacity:1"
       inkscape:label="tipfold" />
  </g>
</svg>
