<?xml version="1.0" encoding="UTF-8" standalone="no"?>
<svg
   id="canvas"
   viewBox="322.840 307.220 1163.501 344.681"
   version="1.1"
   sodipodi:docname="coggwheel.svg"
   inkscape:version="1.3.2 (091e20ef0f, 2023-11-25, custom)"
   xmlns:inkscape="http://www.inkscape.org/namespaces/inkscape"
   xmlns:sodipodi="http://sodipodi.sourceforge.net/DTD/sodipodi-0.dtd"
   xmlns="http://www.w3.org/2000/svg"
   xmlns:svg="http://www.w3.org/2000/svg">
  <defs
     id="defs1" />
  <sodipodi:namedview
     id="namedview1"
     pagecolor="#ffffff"
     bordercolor="#111111"
     borderopacity="1"
     inkscape:showpageshadow="0"
     inkscape:pageopacity="0"
     inkscape:pagecheckerboard="1"
     inkscape:deskcolor="#d1d1d1"
     inkscape:zoom="0.74623917"
     inkscape:cx="582.25301"
     inkscape:cy="54.942171"
     inkscape:window-width="1920"
     inkscape:window-height="1008"
     inkscape:window-x="0"
     inkscape:window-y="0"
     inkscape:window-maximized="1"
     inkscape:current-layer="canvas" />
  <path
     d="M 440.31,409.40 C 439.56 407.35, 438.24 405.52, 435.21 404.88 C 432.18 404.25, 429.84 404.91, 425.16 406.23 C 420.47 407.55, 417.66 408.31, 411.78 411.48 C 405.90 414.65, 402.70 416.78, 395.74 422.09 C 388.78 427.41, 384.62 430.75, 376.97 438.06 C 369.32 445.37, 364.78 449.87, 357.51 458.64 C 350.24 467.40, 346.24 472.69, 340.61 481.88 C 334.98 491.08, 332.28 496.13, 329.35 504.60 C 326.43 513.08, 325.41 517.41, 326.00 524.25 C 326.59 531.09, 328.01 534.59, 332.32 538.81 C 336.62 543.04, 340.19 544.40, 347.50 545.38 C 354.81 546.36, 359.36 545.75, 368.87 543.71 C 378.38 541.66, 383.92 539.59, 395.04 535.15 C 406.15 530.71, 412.47 527.57, 424.43 521.50 C 436.40 515.44, 443.08 511.65, 454.87 504.81 C 466.66 497.97, 472.89 493.98, 483.38 487.31 C 493.87 480.64, 499.05 477.07, 507.32 471.48 C 515.58 465.88, 519.26 463.28, 524.69 459.33 C 530.11 455.39, 532.88 454.65, 534.45 451.77 C 536.03 448.88, 534.64 446.37, 532.55 444.89 C 530.45 443.42, 527.77 442.92, 523.99 444.40 C 520.22 445.87, 518.10 448.26, 513.67 452.26 C 509.25 456.26, 506.56 459.08, 501.87 464.39 C 497.18 469.71, 494.41 472.96, 490.22 478.85 C 486.03 484.75, 483.78 488.06, 480.94 493.87 C 478.10 499.69, 476.74 502.64, 476.03 507.92 C 475.32 513.20, 475.34 516.20, 477.37 520.27 C 479.41 524.33, 481.81 526.40, 486.21 528.25 C 490.61 530.09, 493.73 530.11, 499.38 529.49 C 505.03 528.87, 508.30 527.74, 514.44 525.17 C 520.58 522.60, 524.04 520.67, 530.07 516.64 C 536.11 512.61, 539.41 510.03, 544.63 505.01 C 549.85 500.00, 552.47 497.06, 556.18 491.58 C 559.89 486.10, 561.50 483.09, 563.17 477.62 C 564.84 472.15, 565.16 469.20, 564.53 464.23 C 563.91 459.25, 562.70 456.64, 560.04 452.75 C 557.39 448.86, 555.14 447.16, 551.27 444.76 C 547.41 442.36, 544.81 441.35, 540.72 440.76 C 536.63 440.16, 533.84 440.03, 530.82 441.77 C 527.80 443.52, 526.16 446.10, 525.62 449.49 C 525.08 452.88, 525.50 456.33, 528.13 458.72 C 530.77 461.11, 533.56 460.93, 538.79 461.43 C 544.03 461.94, 547.15 461.73, 554.29 461.25 C 561.44 460.77, 565.77 460.27, 574.54 459.05 C 583.30 457.83, 588.51 456.89, 598.13 455.16 C 607.76 453.43, 613.13 452.27, 622.67 450.39 C 632.22 448.51, 637.34 447.37, 645.86 445.76 C 654.37 444.15, 658.70 443.29, 665.25 442.36 C 671.80 441.42, 674.95 441.81, 678.60 441.09 C 682.24 440.36, 683.19 439.86, 683.48 438.72 C 683.77 437.58, 682.30 435.33, 680.06 435.39 C 677.82 435.44, 676.16 436.71, 672.28 439.01 C 668.41 441.31, 665.75 443.32, 660.69 446.89 C 655.63 450.45, 652.39 452.69, 646.99 456.84 C 641.58 460.99, 638.45 463.39, 633.66 467.66 C 628.87 471.93, 626.42 474.11, 623.06 478.21 C 619.69 482.30, 617.47 484.18, 616.84 488.13 C 616.21 492.09, 617.30 495.29, 619.91 497.99 C 622.51 500.70, 625.30 501.64, 629.86 501.65 C 634.41 501.65, 637.08 500.24, 642.68 498.01 C 648.28 495.78, 651.55 494.02, 657.85 490.48 C 664.14 486.94, 667.79 484.56, 674.17 480.30 C 680.54 476.04, 683.99 473.40, 689.74 469.18 C 695.49 464.96, 698.86 462.53, 702.93 459.19 C 706.99 455.86, 709.30 454.63, 710.05 452.50 C 710.81 450.37, 708.46 448.21, 706.71 448.54 C 704.96 448.87, 703.75 450.17, 701.30 454.13 C 698.86 458.09, 697.54 461.61, 694.48 468.34 C 691.42 475.06, 689.56 479.41, 686.01 487.76 C 682.45 496.11, 680.50 500.79, 676.71 510.09 C 672.92 519.39, 671.00 524.52, 667.05 534.27 C 663.10 544.02, 661.13 549.21, 656.94 558.85 C 652.76 568.48, 650.64 573.49, 646.12 582.45 C 641.60 591.41, 639.20 595.94, 634.35 603.65 C 629.50 611.35, 626.88 615.06, 621.88 620.99 C 616.88 626.92, 614.14 629.54, 609.33 633.30 C 604.52 637.07, 601.86 638.35, 597.83 639.81 C 593.80 641.26, 591.93 641.01, 589.17 640.57 C 586.41 640.14, 585.73 639.63, 584.04 637.64 C 582.34 635.65, 581.34 634.50, 580.69 630.63 C 580.04 626.77, 579.60 624.10, 580.80 618.32 C 582.00 612.54, 583.07 608.87, 586.69 601.72 C 590.32 594.58, 592.89 590.42, 598.92 582.58 C 604.95 574.74, 608.72 570.52, 616.84 562.53 C 624.96 554.54, 629.80 550.44, 639.53 542.63 C 649.26 534.81, 654.79 530.96, 665.48 523.46 C 676.16 515.97, 682.00 512.29, 692.96 505.17 C 703.92 498.05, 709.70 494.53, 720.26 487.86 C 730.81 481.19, 736.15 477.91, 745.73 471.82 C 755.31 465.73, 760.04 462.75, 768.16 457.43 C 776.28 452.10, 780.09 449.57, 786.34 445.18 C 792.58 440.80, 795.29 438.98, 799.39 435.51 C 803.50 432.04, 805.71 431.01, 806.86 427.82 C 808.01 424.63, 807.12 422.13, 805.14 419.56 C 803.15 416.99, 800.67 415.03, 796.94 414.97 C 793.21 414.92, 790.94 416.75, 786.50 419.30 C 782.06 421.84, 779.52 423.75, 774.73 427.70 C 769.94 431.66, 767.21 434.23, 762.57 439.08 C 757.92 443.93, 755.36 446.84, 751.49 451.98 C 747.61 457.11, 745.63 459.84, 743.19 464.74 C 740.76 469.64, 739.37 472.09, 739.32 476.46 C 739.27 480.83, 740.14 483.80, 742.94 486.60 C 745.75 489.39, 748.76 490.29, 753.33 490.42 C 757.91 490.55, 760.51 489.36, 765.83 487.24 C 771.15 485.11, 774.15 483.41, 779.93 479.80 C 785.71 476.18, 788.97 473.73, 794.74 469.17 C 800.52 464.61, 803.64 461.78, 808.80 456.99 C 813.96 452.19, 816.54 449.51, 820.54 445.18 C 824.54 440.84, 827.27 438.78, 828.81 435.32 C 830.34 431.85, 829.86 429.51, 828.20 427.85 C 826.53 426.20, 823.09 425.21, 820.48 427.05 C 817.88 428.89, 817.49 431.83, 815.16 437.04 C 812.82 442.25, 811.40 445.84, 808.80 453.11 C 806.20 460.38, 804.79 464.80, 802.15 473.41 C 799.51 482.01, 798.19 486.77, 795.59 496.13 C 792.99 505.50, 791.79 510.53, 789.14 520.24 C 786.50 529.95, 785.25 535.13, 782.34 544.70 C 779.44 554.28, 777.94 559.26, 774.62 568.13 C 771.31 576.99, 769.52 581.44, 765.78 589.01 C 762.05 596.59, 760.01 600.21, 755.95 606.01 C 751.89 611.81, 749.54 614.34, 745.48 617.99 C 741.42 621.64, 739.03 622.84, 735.65 624.25 C 732.27 625.65, 730.76 625.30, 728.58 625.01 C 726.41 624.72, 726.09 624.55, 724.77 622.78 C 723.45 621.01, 722.39 620.03, 721.99 616.16 C 721.58 612.29, 721.20 609.47, 722.74 603.44 C 724.27 597.41, 725.57 593.61, 729.67 586.02 C 733.76 578.42, 736.63 573.99, 743.23 565.47 C 749.84 556.95, 754.02 552.31, 762.71 543.41 C 771.39 534.51, 776.56 529.84, 786.66 520.95 C 796.77 512.07, 802.45 507.48, 813.23 498.99 C 824.01 490.50, 829.90 486.20, 840.57 478.51 C 851.23 470.82, 856.86 467.07, 866.56 460.54 C 876.25 454.01, 881.07 450.87, 889.05 445.85 C 897.03 440.83, 900.84 438.55, 906.45 435.45 C 912.05 432.35, 915.08 432.06, 917.08 430.33 C 919.08 428.61, 917.70 426.54, 916.44 426.83 C 915.18 427.13, 913.80 428.25, 910.77 431.80 C 907.74 435.35, 905.64 438.74, 901.28 444.60 C 896.91 450.46, 893.86 454.51, 888.95 461.11 C 884.03 467.71, 880.97 471.53, 876.71 477.60 C 872.45 483.66, 870.04 486.45, 867.65 491.42 C 865.26 496.38, 863.86 498.77, 864.76 502.42 C 865.66 506.07, 868.27 508.78, 872.16 509.68 C 876.05 510.59, 878.69 509.02, 884.22 506.95 C 889.75 504.88, 893.04 503.01, 899.81 499.33 C 906.58 495.65, 910.65 493.04, 918.08 488.55 C 925.51 484.05, 930.13 480.91, 936.97 476.86 C 943.80 472.81, 947.76 470.66, 952.25 468.28 C 956.74 465.91, 958.44 465.72, 959.41 464.99 C 960.38 464.26, 958.47 463.32, 957.11 464.63 C 955.74 465.93, 954.57 467.95, 952.59 471.53 C 950.62 475.11, 948.84 478.05, 947.25 482.52 C 945.66 486.98, 944.34 489.63, 944.64 493.84 C 944.93 498.05, 945.92 500.85, 948.73 503.57 C 951.54 506.30, 954.27 507.52, 958.67 507.46 C 963.07 507.39, 965.61 505.84, 970.74 503.24 C 975.88 500.65, 978.77 498.61, 984.36 494.48 C 989.94 490.35, 993.19 487.65, 998.66 482.60 C 1004.13 477.55, 1007.13 474.51, 1011.72 469.24 C 1016.31 463.96, 1018.40 461.04, 1021.59 456.21 C 1024.78 451.38, 1026.11 449.08, 1027.68 445.08 C 1029.25 441.09, 1029.68 439.04, 1029.43 436.23 C 1029.17 433.42, 1027.79 431.79, 1026.42 431.03 C 1025.04 430.27, 1023.18 431.03, 1022.56 432.44 C 1021.95 433.85, 1021.73 436.67, 1023.34 438.08 C 1024.96 439.50, 1026.87 440.01, 1030.65 439.52 C 1034.43 439.03, 1036.80 437.58, 1042.24 435.65 C 1047.68 433.72, 1050.92 432.75, 1057.85 429.87 C 1064.77 426.98, 1068.83 425.26, 1076.88 421.23 C 1084.93 417.20, 1089.45 414.82, 1098.08 409.72 C 1106.71 404.62, 1111.45 401.68, 1120.03 395.72 C 1128.60 389.76, 1133.08 386.35, 1140.97 379.93 C 1148.87 373.50, 1152.85 370.03, 1159.51 363.60 C 1166.17 357.18, 1169.35 353.78, 1174.27 347.82 C 1179.19 341.86, 1181.27 338.95, 1184.10 333.80 C 1186.94 328.66, 1188.48 326.40, 1188.46 322.11 C 1188.44 317.81, 1187.15 314.60, 1184.01 312.33 C 1180.86 310.06, 1177.70 309.78, 1172.73 310.74 C 1167.77 311.70, 1165.17 313.31, 1159.20 317.15 C 1153.22 320.99, 1149.82 323.62, 1142.85 329.94 C 1135.88 336.26, 1131.86 340.29, 1124.34 348.75 C 1116.83 357.21, 1112.66 362.35, 1105.26 372.23 C 1097.85 382.11, 1093.98 387.80, 1087.33 398.14 C 1080.68 408.48, 1077.42 414.16, 1072.02 423.94 C 1066.62 433.71, 1064.14 438.73, 1060.32 447.02 C 1056.49 455.31, 1054.95 459.09, 1052.89 465.39 C 1050.83 471.68, 1049.55 474.17, 1050.01 478.49 C 1050.46 482.81, 1052.00 485.27, 1055.16 486.98 C 1058.31 488.69, 1061.19 488.34, 1065.77 487.03 C 1070.35 485.73, 1072.74 483.66, 1078.06 480.47 C 1083.39 477.28, 1086.55 474.76, 1092.42 471.09 C 1098.28 467.42, 1102.03 464.97, 1107.39 462.11 C 1112.74 459.26, 1115.92 458.15, 1119.18 456.82 C 1122.44 455.50, 1123.09 455.40, 1123.68 455.47 C 1124.27 455.55, 1122.82 455.45, 1122.12 457.22 C 1121.42 458.98, 1120.86 460.75, 1120.19 464.32 C 1119.52 467.88, 1118.75 470.63, 1118.77 475.03 C 1118.79 479.43, 1118.63 482.26, 1120.31 486.32 C 1121.99 490.38, 1123.47 492.93, 1127.16 495.35 C 1130.86 497.76, 1133.58 498.27, 1138.79 498.39 C 1144.00 498.50, 1146.90 497.78, 1153.23 495.94 C 1159.55 494.09, 1163.21 492.55, 1170.44 489.16 C 1177.66 485.77, 1181.88 483.45, 1189.35 478.99 C 1196.82 474.52, 1200.93 471.74, 1207.78 466.83 C 1214.64 461.93, 1218.17 459.13, 1223.61 454.47 C 1229.05 449.82, 1231.71 447.65, 1235.00 443.54 C 1238.29 439.44, 1240.05 437.52, 1240.06 433.95 C 1240.06 430.37, 1238.18 427.36, 1235.04 425.67 C 1231.89 423.98, 1229.01 424.14, 1224.31 425.49 C 1219.62 426.84, 1216.82 428.79, 1211.55 432.43 C 1206.27 436.06, 1203.14 438.69, 1197.96 443.66 C 1192.78 448.64, 1189.86 451.75, 1185.66 457.31 C 1181.46 462.87, 1179.20 465.90, 1176.96 471.47 C 1174.71 477.05, 1173.79 480.17, 1174.46 485.18 C 1175.12 490.20, 1176.54 493.11, 1180.29 496.54 C 1184.05 499.97, 1187.07 501.11, 1193.23 502.33 C 1199.39 503.55, 1203.25 503.44, 1211.08 502.64 C 1218.90 501.84, 1223.47 500.82, 1232.35 498.33 C 1241.23 495.84, 1246.29 493.98, 1255.48 490.21 C 1264.67 486.43, 1269.72 484.02, 1278.30 479.46 C 1286.87 474.90, 1291.30 472.18, 1298.37 467.40 C 1305.44 462.62, 1308.77 460.00, 1313.63 455.54 C 1318.49 451.08, 1320.91 449.24, 1322.66 445.11 C 1324.42 440.99, 1324.36 437.91, 1322.40 434.90 C 1320.45 431.89, 1317.40 430.26, 1312.90 430.06 C 1308.40 429.86, 1305.43 431.33, 1299.90 433.90 C 1294.38 436.46, 1291.05 438.62, 1285.26 442.89 C 1279.47 447.16, 1276.09 449.95, 1270.95 455.26 C 1265.81 460.58, 1263.04 463.74, 1259.56 469.47 C 1256.08 475.20, 1254.40 478.34, 1253.57 483.89 C 1252.74 489.45, 1252.93 492.79, 1255.41 497.25 C 1257.88 501.71, 1260.48 503.89, 1265.96 506.19 C 1271.45 508.49, 1275.07 508.93, 1282.81 508.74 C 1290.56 508.56, 1295.10 507.84, 1304.68 505.26 C 1314.25 502.69, 1319.80 500.72, 1330.70 495.88 C 1341.60 491.04, 1347.60 487.89, 1359.17 481.05 C 1370.75 474.22, 1376.96 470.07, 1388.58 461.70 C 1400.20 453.34, 1406.45 448.47, 1417.25 439.21 C 1428.05 429.96, 1433.44 424.75, 1442.58 415.43 C 1451.73 406.12, 1456.11 401.17, 1462.98 392.65 C 1469.84 384.13, 1472.87 379.95, 1476.89 372.81 C 1480.91 365.68, 1482.39 362.54, 1483.07 356.99 C 1483.75 351.44, 1483.26 348.16, 1480.29 345.08 C 1477.33 341.99, 1473.95 341.16, 1468.23 341.57 C 1462.52 341.99, 1459.04 343.37, 1451.72 347.14 C 1444.40 350.91, 1439.99 353.77, 1431.63 360.42 C 1423.27 367.07, 1418.36 371.47, 1409.94 380.40 C 1401.52 389.33, 1396.88 394.81, 1389.54 405.08 C 1382.21 415.35, 1378.45 421.24, 1373.26 431.74 C 1368.06 442.24, 1365.82 447.80, 1363.57 457.57 C 1361.32 467.33, 1360.74 472.27, 1362.00 480.57 C 1363.27 488.87, 1364.90 492.87, 1369.90 499.06 C 1374.90 505.24, 1378.75 507.76, 1387.00 511.49 C 1395.25 515.22, 1401.56 516.12, 1411.16 517.70 C 1420.76 519.29, 1426.81 519.16, 1434.99 519.41 C 1443.18 519.65, 1448.71 519.97, 1452.11 518.93 C 1455.50 517.89, 1455.38 515.07, 1451.99 514.21 C 1448.59 513.34, 1443.16 514.87, 1435.15 514.60 C 1427.14 514.33, 1421.20 514.33, 1411.95 512.85 C 1402.70 511.37, 1396.60 510.54, 1388.89 507.21 C 1381.18 503.88, 1377.94 501.65, 1373.41 496.19 C 1368.87 490.73, 1367.44 487.47, 1366.23 479.91 C 1365.02 472.36, 1365.32 467.74, 1367.37 458.43 C 1369.43 449.11, 1371.49 443.59, 1376.50 433.34 C 1381.52 423.09, 1385.21 417.22, 1392.46 407.17 C 1399.70 397.12, 1404.34 391.70, 1412.74 383.08 C 1421.14 374.47, 1426.15 370.24, 1434.45 364.09 C 1442.75 357.95, 1447.38 355.50, 1454.26 352.36 C 1461.14 349.21, 1464.60 348.86, 1468.85 348.36 C 1473.10 347.87, 1473.79 348.29, 1475.50 349.88 C 1477.21 351.46, 1477.90 352.13, 1477.40 356.30 C 1476.89 360.46, 1476.41 363.88, 1472.95 370.70 C 1469.50 377.53, 1466.66 381.91, 1460.13 390.41 C 1453.60 398.91, 1449.27 403.91, 1440.30 413.21 C 1431.33 422.51, 1425.98 427.71, 1415.27 436.91 C 1404.57 446.10, 1398.34 450.94, 1386.78 459.19 C 1375.22 467.44, 1369.00 471.52, 1357.48 478.15 C 1345.96 484.77, 1339.96 487.81, 1329.17 492.31 C 1318.38 496.81, 1312.81 498.55, 1303.53 500.67 C 1294.26 502.78, 1289.78 503.05, 1282.81 502.89 C 1275.83 502.72, 1272.87 501.68, 1268.66 499.85 C 1264.46 498.02, 1263.41 496.71, 1261.78 493.73 C 1260.15 490.76, 1259.83 489.15, 1260.52 484.98 C 1261.20 480.81, 1262.18 477.90, 1265.20 472.88 C 1268.22 467.85, 1270.76 464.66, 1275.60 459.84 C 1280.44 455.03, 1283.85 452.43, 1289.38 448.81 C 1294.92 445.18, 1298.46 443.59, 1303.26 441.72 C 1308.06 439.85, 1310.67 440.03, 1313.38 439.45 C 1316.09 438.88, 1316.30 438.37, 1316.81 438.85 C 1317.31 439.32, 1317.37 439.33, 1315.91 441.83 C 1314.44 444.32, 1313.55 447.00, 1309.48 451.31 C 1305.40 455.62, 1302.21 458.54, 1295.55 463.37 C 1288.88 468.20, 1284.51 470.94, 1276.15 475.45 C 1267.79 479.96, 1262.77 482.33, 1253.75 485.91 C 1244.73 489.50, 1239.67 491.22, 1231.04 493.37 C 1222.41 495.51, 1217.86 496.21, 1210.59 496.63 C 1203.32 497.04, 1199.73 496.60, 1194.69 495.45 C 1189.65 494.30, 1187.94 493.11, 1185.38 490.87 C 1182.83 488.63, 1182.30 487.61, 1181.92 484.25 C 1181.54 480.89, 1181.67 478.66, 1183.49 474.09 C 1185.31 469.51, 1187.17 466.42, 1191.03 461.39 C 1194.88 456.35, 1197.77 453.28, 1202.77 448.91 C 1207.78 444.54, 1211.13 442.35, 1216.05 439.54 C 1220.96 436.73, 1224.03 436.12, 1227.36 434.85 C 1230.69 433.59, 1231.69 433.64, 1232.70 433.24 C 1233.70 432.83, 1233.08 431.65, 1232.39 432.82 C 1231.70 434.00, 1231.79 435.65, 1229.24 439.10 C 1226.70 442.56, 1224.59 445.42, 1219.67 450.10 C 1214.75 454.78, 1211.27 457.67, 1204.66 462.51 C 1198.04 467.35, 1193.94 470.09, 1186.61 474.30 C 1179.27 478.51, 1175.01 480.66, 1167.97 483.57 C 1160.94 486.47, 1157.17 487.63, 1151.43 488.83 C 1145.69 490.04, 1142.95 489.95, 1139.26 489.58 C 1135.58 489.22, 1134.65 488.37, 1133.00 487.03 C 1131.35 485.69, 1131.38 485.18, 1131.01 482.87 C 1130.64 480.57, 1130.82 478.91, 1131.15 475.53 C 1131.49 472.15, 1132.36 469.87, 1132.68 465.97 C 1133.00 462.08, 1134.02 459.50, 1132.75 456.05 C 1131.48 452.60, 1129.60 450.17, 1126.33 448.73 C 1123.07 447.29, 1120.92 447.49, 1116.41 448.86 C 1111.90 450.23, 1109.35 452.41, 1103.78 455.60 C 1098.22 458.78, 1094.53 461.25, 1088.57 464.78 C 1082.61 468.32, 1079.15 470.52, 1073.99 473.26 C 1068.83 475.99, 1066.00 477.06, 1062.78 478.48 C 1059.57 479.89, 1059.06 480.42, 1057.93 480.34 C 1056.80 480.26, 1057.11 480.76, 1057.15 478.07 C 1057.19 475.38, 1056.73 472.76, 1058.15 466.89 C 1059.57 461.03, 1060.83 456.99, 1064.26 448.75 C 1067.69 440.52, 1070.09 435.46, 1075.31 425.73 C 1080.52 415.99, 1083.75 410.32, 1090.33 400.07 C 1096.92 389.82, 1100.79 384.17, 1108.22 374.47 C 1115.64 364.78, 1119.85 359.70, 1127.45 351.59 C 1135.06 343.47, 1139.20 339.60, 1146.24 333.89 C 1153.28 328.18, 1157.00 325.99, 1162.64 323.04 C 1168.28 320.09, 1171.09 319.87, 1174.44 319.14 C 1177.79 318.41, 1178.21 318.86, 1179.40 319.41 C 1180.60 319.96, 1180.62 319.58, 1180.42 321.88 C 1180.22 324.19, 1180.43 326.38, 1178.39 330.93 C 1176.35 335.48, 1174.62 338.74, 1170.22 344.64 C 1165.82 350.53, 1162.76 354.01, 1156.38 360.41 C 1149.99 366.82, 1146.06 370.31, 1138.31 376.68 C 1130.56 383.04, 1126.13 386.42, 1117.63 392.24 C 1109.13 398.07, 1104.41 400.94, 1095.81 405.79 C 1087.21 410.64, 1082.67 412.92, 1074.64 416.50 C 1066.61 420.08, 1062.51 421.64, 1055.64 423.69 C 1048.77 425.73, 1045.43 426.35, 1040.29 426.73 C 1035.14 427.12, 1032.99 425.73, 1029.91 425.61 C 1026.83 425.49, 1026.50 425.13, 1024.89 426.12 C 1023.27 427.12, 1022.86 429.02, 1021.82 430.60 C 1020.78 432.18, 1020.20 432.84, 1019.70 434.03 C 1019.20 435.22, 1019.41 434.91, 1019.31 436.57 C 1019.21 438.23, 1019.96 439.13, 1019.19 442.32 C 1018.42 445.50, 1017.93 447.95, 1015.46 452.50 C 1012.98 457.05, 1011.05 460.00, 1006.82 465.06 C 1002.59 470.11, 999.64 473.10, 994.31 477.77 C 988.99 482.45, 985.63 484.96, 980.18 488.43 C 974.74 491.91, 971.54 493.42, 967.09 495.17 C 962.64 496.91, 960.32 496.73, 957.92 497.16 C 955.53 497.59, 955.47 497.80, 955.13 497.31 C 954.78 496.81, 955.43 496.78, 956.18 494.67 C 956.93 492.56, 957.46 490.51, 958.87 486.77 C 960.28 483.04, 961.92 480.23, 963.23 476.01 C 964.55 471.79, 966.22 469.11, 965.45 465.66 C 964.67 462.21, 962.64 459.47, 959.37 458.77 C 956.09 458.07, 954.16 459.55, 949.06 462.16 C 943.97 464.78, 940.69 467.58, 933.91 471.86 C 927.12 476.14, 922.56 479.27, 915.13 483.57 C 907.71 487.86, 903.49 490.18, 896.77 493.32 C 890.05 496.47, 886.33 497.78, 881.55 499.29 C 876.78 500.81, 874.78 500.47, 872.88 500.90 C 870.98 501.33, 871.83 502.72, 872.07 501.44 C 872.31 500.16, 872.14 498.58, 874.09 494.51 C 876.04 490.45, 877.86 487.03, 881.83 481.11 C 885.80 475.20, 888.87 471.31, 893.93 464.94 C 898.99 458.57, 902.41 454.87, 907.14 449.24 C 911.87 443.62, 914.85 441.13, 917.60 436.83 C 920.35 432.52, 921.55 430.35, 920.88 427.73 C 920.20 425.11, 917.69 423.09, 914.23 423.71 C 910.78 424.33, 909.08 427.08, 903.60 430.83 C 898.11 434.58, 894.61 437.07, 886.81 442.44 C 879.01 447.81, 874.22 450.99, 864.60 457.68 C 854.98 464.38, 849.36 468.16, 838.70 475.93 C 828.03 483.70, 822.13 488.01, 811.29 496.52 C 800.46 505.04, 794.74 509.62, 784.51 518.49 C 774.28 527.36, 769.06 532.00, 760.14 540.87 C 751.23 549.74, 746.94 554.33, 739.94 562.84 C 732.94 571.35, 729.87 575.68, 725.14 583.42 C 720.42 591.15, 718.64 594.83, 716.32 601.49 C 714.01 608.15, 713.38 611.29, 713.58 616.71 C 713.79 622.14, 714.56 625.16, 717.34 628.62 C 720.11 632.07, 723.16 633.47, 727.47 633.99 C 731.79 634.50, 734.45 633.48, 738.92 631.18 C 743.40 628.88, 745.56 626.93, 749.84 622.48 C 754.12 618.04, 756.30 615.23, 760.33 608.94 C 764.36 602.65, 766.31 598.89, 769.99 591.03 C 773.66 583.17, 775.41 578.64, 778.69 569.62 C 781.96 560.60, 783.45 555.57, 786.37 545.92 C 789.28 536.27, 790.53 531.08, 793.25 521.38 C 795.98 511.67, 797.20 506.66, 799.98 497.40 C 802.75 488.14, 804.12 483.42, 807.14 475.08 C 810.16 466.73, 811.88 462.47, 815.07 455.69 C 818.25 448.91, 820.28 445.70, 823.05 441.18 C 825.82 436.67, 828.30 435.73, 828.91 433.10 C 829.51 430.47, 827.65 428.56, 826.07 428.02 C 824.49 427.48, 823.24 427.91, 821.01 430.41 C 818.79 432.90, 818.28 436.09, 814.95 440.48 C 811.63 444.87, 809.22 447.63, 804.39 452.35 C 799.55 457.06, 796.41 459.80, 790.78 464.03 C 785.16 468.26, 781.84 470.49, 776.26 473.50 C 770.69 476.50, 767.51 477.64, 762.92 479.04 C 758.32 480.45, 756.02 480.37, 753.29 480.52 C 750.57 480.68, 750.25 480.56, 749.28 479.82 C 748.30 479.08, 748.21 479.17, 748.42 476.82 C 748.64 474.48, 748.60 472.20, 750.37 468.08 C 752.13 463.97, 753.78 461.03, 757.25 456.25 C 760.73 451.48, 763.24 448.58, 767.74 444.21 C 772.24 439.85, 775.07 437.52, 779.74 434.43 C 784.41 431.33, 787.29 430.23, 791.11 428.74 C 794.93 427.25, 796.86 427.96, 798.85 426.99 C 800.85 426.03, 800.96 424.52, 801.09 423.91 C 801.23 423.31, 800.75 422.60, 799.51 423.96 C 798.26 425.33, 798.11 427.28, 794.88 430.74 C 791.66 434.20, 789.18 436.58, 783.38 441.25 C 777.58 445.92, 773.81 448.57, 765.90 454.09 C 757.99 459.60, 753.29 462.64, 743.81 468.83 C 734.33 475.03, 729.01 478.35, 718.48 485.07 C 707.96 491.80, 702.18 495.32, 691.20 502.46 C 680.22 509.60, 674.36 513.28, 663.59 520.77 C 652.82 528.25, 647.25 532.10, 637.35 539.89 C 627.46 547.69, 622.53 551.76, 614.13 559.74 C 605.74 567.71, 601.84 571.89, 595.38 579.76 C 588.92 587.63, 586.09 591.72, 581.84 599.10 C 577.60 606.48, 576.00 610.12, 574.14 616.66 C 572.27 623.20, 571.85 626.41, 572.51 631.79 C 573.17 637.16, 574.32 640.16, 577.44 643.55 C 580.55 646.94, 583.49 648.20, 588.09 648.74 C 592.69 649.28, 595.46 648.46, 600.45 646.25 C 605.43 644.05, 607.96 642.15, 613.00 637.71 C 618.05 633.28, 620.66 630.43, 625.67 624.08 C 630.69 617.72, 633.25 613.90, 638.07 605.94 C 642.89 597.98, 645.27 593.38, 649.78 584.28 C 654.29 575.18, 656.41 570.14, 660.63 560.45 C 664.84 550.76, 666.82 545.56, 670.87 535.84 C 674.91 526.12, 676.85 521.01, 680.86 511.84 C 684.87 502.68, 686.88 498.05, 690.90 490.02 C 694.92 481.99, 697.28 477.99, 700.96 471.69 C 704.64 465.40, 707.19 462.84, 709.30 458.56 C 711.42 454.28, 712.30 452.69, 711.54 450.30 C 710.77 447.92, 708.23 446.05, 705.49 446.65 C 702.76 447.24, 701.78 449.76, 697.85 453.26 C 693.93 456.76, 691.28 459.77, 685.86 464.14 C 680.45 468.52, 677.01 471.09, 670.77 475.12 C 664.52 479.15, 660.79 481.33, 654.62 484.30 C 648.44 487.28, 644.95 488.52, 639.89 489.99 C 634.84 491.47, 632.25 491.29, 629.34 491.67 C 626.44 492.06, 626.04 492.17, 625.38 491.92 C 624.72 491.68, 625.22 492.21, 626.03 490.45 C 626.84 488.70, 626.95 486.63, 629.44 483.13 C 631.93 479.63, 634.12 477.03, 638.49 472.94 C 642.85 468.85, 645.91 466.42, 651.27 462.69 C 656.63 458.95, 660.03 457.16, 665.30 454.26 C 670.57 451.37, 673.62 450.50, 677.63 448.22 C 681.64 445.94, 683.92 445.42, 685.37 442.86 C 686.81 440.30, 686.40 437.33, 684.85 435.42 C 683.30 433.52, 681.77 433.10, 677.63 433.35 C 673.50 433.59, 670.72 435.11, 664.17 436.65 C 657.63 438.18, 653.37 439.17, 644.89 441.02 C 636.41 442.88, 631.30 444.03, 621.79 445.92 C 612.28 447.81, 606.91 448.92, 597.33 450.45 C 587.76 451.98, 582.54 452.82, 573.92 453.55 C 565.30 454.28, 560.94 454.46, 554.23 454.11 C 547.52 453.76, 544.44 452.82, 540.37 451.80 C 536.31 450.78, 535.49 449.14, 533.90 449.01 C 532.31 448.89, 532.31 450.34, 532.41 451.18 C 532.50 452.02, 533.01 452.85, 534.38 453.23 C 535.74 453.62, 536.85 452.93, 539.24 453.11 C 541.64 453.28, 543.67 453.08, 546.36 454.12 C 549.05 455.16, 550.67 456.05, 552.72 458.33 C 554.76 460.60, 555.85 462.02, 556.56 465.49 C 557.28 468.96, 557.46 471.17, 556.30 475.67 C 555.14 480.17, 553.96 483.03, 550.75 487.99 C 547.55 492.95, 545.13 495.84, 540.28 500.47 C 535.43 505.10, 532.21 507.56, 526.51 511.14 C 520.81 514.71, 517.35 516.33, 511.77 518.36 C 506.19 520.38, 503.07 520.92, 498.59 521.27 C 494.12 521.62, 492.15 521.08, 489.40 520.11 C 486.65 519.15, 486.02 518.72, 484.84 516.47 C 483.66 514.21, 483.06 512.80, 483.51 508.86 C 483.95 504.93, 484.65 502.01, 487.07 496.78 C 489.48 491.55, 491.55 488.19, 495.57 482.71 C 499.59 477.24, 502.39 474.09, 507.18 469.42 C 511.96 464.75, 515.07 462.58, 519.48 459.36 C 523.88 456.15, 526.65 455.55, 529.20 453.35 C 531.74 451.15, 532.25 449.63, 532.21 448.36 C 532.17 447.09, 531.15 445.61, 528.99 446.99 C 526.83 448.37, 526.20 451.00, 521.41 455.25 C 516.62 459.50, 513.02 462.41, 505.04 468.25 C 497.07 474.09, 491.90 477.70, 481.53 484.44 C 471.17 491.19, 464.95 495.18, 453.22 501.98 C 441.50 508.77, 434.81 512.52, 422.89 518.41 C 410.96 524.31, 404.60 527.33, 393.61 531.47 C 382.62 535.60, 377.02 537.38, 367.94 539.11 C 358.86 540.83, 354.57 540.92, 348.21 540.08 C 341.85 539.23, 339.56 538.13, 336.12 534.87 C 332.69 531.62, 331.54 529.58, 331.04 523.81 C 330.53 518.04, 330.97 513.99, 333.59 506.03 C 336.21 498.07, 338.70 492.97, 344.11 484.01 C 349.53 475.06, 353.48 469.80, 360.67 461.27 C 367.86 452.75, 372.41 448.32, 380.06 441.38 C 387.72 434.44, 391.99 431.22, 398.95 426.57 C 405.90 421.92, 409.24 420.21, 414.82 418.13 C 420.41 416.05, 422.99 416.34, 426.88 416.18 C 430.76 416.02, 431.84 417.52, 434.25 417.31 C 436.67 417.09, 437.75 416.69, 438.96 415.11 C 440.17 413.53, 441.06 411.44, 440.31 409.40"
     style="stroke:#f4ecd8;fill:#f4ecd8;fill-opacity:1;stroke-opacity:1"
     id="path1" />
</svg>
