<svg width="654" height="654" viewBox="0 0 654 654" fill="none" xmlns="http://www.w3.org/2000/svg">
<g clip-path="url(#clip0_0_1)">
<ellipse cx="324" cy="332.5" rx="271" ry="271.5" fill="#F4ECD8"/>
<rect x="454" y="82" width="44" height="511" fill="#005244"/>
<rect x="165" y="263" width="311" height="44" fill="#005244"/>
<rect x="165" y="349" width="311" height="44" fill="#005244"/>
<rect x="165" y="435" width="311" height="44" fill="#005244"/>
<rect x="165" y="177" width="311" height="44" fill="#005244"/>
<path d="M327 0C507.597 0 654 146.403 654 327C654 507.597 507.597 654 327 654C146.403 654 0 507.597 0 327C0 146.403 146.403 0 327 0ZM327 63.9053C181.697 63.9053 63.9053 181.697 63.9053 327C63.9053 472.303 181.697 590.095 327 590.095C472.303 590.095 590.095 472.303 590.095 327C590.095 181.697 472.303 63.9053 327 63.9053Z" fill="#005244"/>
</g>
<defs>
<clipPath id="clip0_0_1">
<rect width="654" height="654" fill="white"/>
</clipPath>
</defs>
</svg>
